# xmcd
#
# Track frame offsets: 
#        150
#        19411
#        34632
#        53253
#        73316
#        88043
#        106970
#        124121
#        147360
#        163967
#        181334
#
# Disc length: 2509 seconds
#
# Revision: 0
# Processed by: cddbd v1.5.2PL0 Copyright (c) Steve Scherf et al.
# Submitted via: ExactAudioCopy v1.0b3
#
DISCID=9709cb0b
DTITLE=Leslie West - Still Climbing
DYEAR=2013
DGENRE=Blues-Rock
TTITLE0=Dyin' Since The Day I Was Born
TTITLE1=Busted, Disgusted Or Dead
TTITLE2=Fade Into You
TTITLE3=Not Over You At All
TTITLE4=Tales Of Woe
TTITLE5=Feeling Good
TTITLE6=Hatfield Or McCoy
TTITLE7=When A Man Loves A Woman
TTITLE8=Long Red
TTITLE9=Don't Ever Let Me Go
TTITLE10=Rev Jones Time (Somewhere Over The Rainbow)
EXTD=
EXTT0=
EXTT1=
EXTT2=
EXTT3=
EXTT4=
EXTT5=
EXTT6=
EXTT7=
EXTT8=
EXTT9=
EXTT10=
PLAYORDER=
